<svg xmlns:x="http://ns.adobe.com/Extensibility/1.0/" xmlns:i="http://ns.adobe.com/AdobeIllustrator/10.0/" xmlns:graph="http://ns.adobe.com/Graphs/1.0/" xmlns="http://www.w3.org/2000/svg" xmlns:xlink="http://www.w3.org/1999/xlink" xmlns:a="http://ns.adobe.com/AdobeSVGViewerExtensions/3.0/" version="1.1" x="0px" y="0px" viewBox="0 0 100 125" enable-background="new 0 0 100 100" xml:space="preserve"><metadata><sfw xmlns="http://ns.adobe.com/SaveForWeb/1.0/"><slices/><sliceSourceBounds height="96.207" width="1171" bottomLeftOrigin="true" x="-0.5" y="-90.5"/></sfw></metadata><path fill-rule="evenodd" clip-rule="evenodd" d="M73.263,86.325L19.88,80.093l8.864-63.873l35.905,4.031l15.192,19.524  L73.263,86.325z M61.341,24.124l-28.458-2.853l-8.063,54.733l44.302,5.402l5.354-36.903l-17.072-2.289L61.341,24.124z   M37.566,66.334c-0.309-0.403-3.045-2.686-3.559-3.392c7.281-8.078,25.062-7.978,30,2.709c-0.823,0.302-4.497,1.887-5.217,2.29  C56.73,61.979,44.664,60.098,37.566,66.334z M51.258,44.25l-3,2.25l-4.512-5.414l-6.143,3.285l-2.479-4.131l5.587-2.794  l-3.703-4.443l4.5-3l3.592,5.249l6.398-3.199l1.928,3.856l-5.766,3.084L51.258,44.25z"/><text x="0" y="115" fill="#000000" font-size="5px" font-weight="bold" font-family="'Helvetica Neue', Helvetica, Arial-Unicode, Arial, Sans-serif">Created by Sergey</text><text x="0" y="120" fill="#000000" font-size="5px" font-weight="bold" font-family="'Helvetica Neue', Helvetica, Arial-Unicode, Arial, Sans-serif">from the Noun Project</text></svg>